<svg width="55" height="55" viewBox="0 0 55 55" fill="none" xmlns="http://www.w3.org/2000/svg">
<path d="M16.2286 16.0971C19.2584 13.0672 23.2868 11.3807 27.5716 11.3807C31.8565 11.3807 35.8848 13.0761 38.9146 16.106C40.8371 18.0284 42.2105 20.3385 42.9583 22.9167H55V6.73177C55 2.93477 52.0652 0 48.2682 0H7.01823C3.22122 0 0 2.93477 0 6.73177V22.9167H12.1848C12.9327 20.3385 14.3062 18.0195 16.2286 16.0971ZM50.4167 11.9167C50.4167 12.9292 49.596 13.75 48.5833 13.75H43.0833C42.0708 13.75 41.25 12.9293 41.25 11.9167V6.41667C41.25 5.40418 42.0707 4.58333 43.0833 4.58333H48.5833C49.5958 4.58333 50.4167 5.40404 50.4167 6.41667V11.9167ZM38.9146 38.7835C35.8848 41.8133 31.8565 43.464 27.5716 43.464C23.2868 43.464 19.2584 41.8223 16.2286 38.7925C13.2043 35.7682 11.5365 31.6536 11.5302 27.5H0V47.9818C0 51.7788 3.22122 55 7.01823 55H48.2682C52.0652 55 55 51.7788 55 47.9818V27.5H43.613C43.6068 31.6536 41.9391 35.7592 38.9146 38.7835Z" fill="white"/>
<path d="M27.1727 38.6309C33.5009 38.6309 38.631 33.5008 38.631 27.1726C38.631 20.8443 33.5009 15.7142 27.1727 15.7142C20.8444 15.7142 15.7144 20.8443 15.7144 27.1726C15.7144 33.5008 20.8444 38.6309 27.1727 38.6309Z" fill="white"/>
</svg>
