<svg width="14" height="14" viewBox="0 0 14 14" fill="none" xmlns="http://www.w3.org/2000/svg">
<path d="M4.13091 4.09744C4.90215 3.3262 5.92754 2.89691 7.01823 2.89691C8.10892 2.89691 9.13431 3.32846 9.90555 4.0997C10.3949 4.58905 10.7445 5.17708 10.9348 5.83333H14V1.71354C14 0.747031 13.253 0 12.2865 0H1.78646C0.819948 0 0 0.747031 0 1.71354V5.83333H3.10158C3.29197 5.17708 3.64157 4.58679 4.13091 4.09744ZM12.8333 3.03333C12.8333 3.29106 12.6244 3.5 12.3667 3.5H10.9667C10.7089 3.5 10.5 3.29109 10.5 3.03333V1.63333C10.5 1.37561 10.7089 1.16667 10.9667 1.16667H12.3667C12.6244 1.16667 12.8333 1.37557 12.8333 1.63333V3.03333ZM9.90555 9.87215C9.13431 10.6434 8.10892 11.0636 7.01823 11.0636C5.92754 11.0636 4.90215 10.6457 4.13091 9.87445C3.36109 9.10463 2.93657 8.05729 2.93497 7H0V12.2135C0 13.1801 0.819948 14 1.78646 14H12.2865C13.253 14 14 13.1801 14 12.2135V7H11.1015C11.0999 8.05729 10.6754 9.10233 9.90555 9.87215Z" fill="#E11C25"/>
<path d="M7.11688 10.0332C8.72772 10.0332 10.0336 8.72739 10.0336 7.11658C10.0336 5.50577 8.72772 4.19995 7.11688 4.19995C5.50604 4.19995 4.2002 5.50577 4.2002 7.11658C4.2002 8.72739 5.50604 10.0332 7.11688 10.0332Z" fill="#E11C25"/>
</svg>
