<svg width="30" height="14" viewBox="0 0 30 14" fill="none" xmlns="http://www.w3.org/2000/svg">
<path d="M27.6009 0H2.56316C1.19562 0 0 0.459495 0 1.09039V12.8002C0 13.4347 1.19562 14 2.56316 14H27.5931C28.9684 14 30 13.4311 30 12.8002V1.09039C30.0078 0.459495 28.9684 0 27.6009 0ZM9.29928 11.6697H5.0013V5.43371H9.29928V11.6697ZM7.29876 4.48554H7.26751C5.89215 4.48554 5.0013 4.00781 5.0013 3.40974C5.0013 2.80073 5.91559 2.33394 7.32221 2.33394C8.72882 2.33394 9.58842 2.79708 9.61968 3.40974C9.61968 4.00781 8.72882 4.48554 7.29876 4.48554ZM25.0065 11.6697H20.7085V8.25996C20.7085 7.44308 20.0833 6.88513 18.5282 6.88513C17.3404 6.88513 16.6371 7.26075 16.3245 7.62542C16.2073 7.75671 16.1761 7.9354 16.1761 8.11774V11.6697H11.8781V5.43371H16.1761V6.30164C16.8012 5.88591 17.778 5.28784 20.0521 5.28784C22.8731 5.28784 25.0065 6.15577 25.0065 8.02657V11.6697Z" fill="#E11C25"/>
</svg>
