<svg width="55" height="55" viewBox="0 0 55 55" fill="none" xmlns="http://www.w3.org/2000/svg">
<path d="M50.6017 0H4.69913C2.19197 0 0 1.80516 0 4.28367V50.2865C0 52.7794 2.19197 55 4.69913 55H50.5873C53.1088 55 54.9999 52.765 54.9999 50.2865V4.28367C55.0143 1.80516 53.1088 0 50.6017 0ZM17.0487 45.8453H9.16904V21.3467H17.0487V45.8453ZM13.3811 17.6218H13.3238C10.8023 17.6218 9.16904 15.745 9.16904 13.3954C9.16904 11.0029 10.8453 9.16905 13.424 9.16905C16.0028 9.16905 17.5788 10.9885 17.6361 13.3954C17.6361 15.745 16.0028 17.6218 13.3811 17.6218ZM45.8452 45.8453H37.9656V32.4499C37.9656 29.2407 36.8194 27.0487 33.9684 27.0487C31.7908 27.0487 30.5014 28.5244 29.9283 29.957C29.7134 30.4728 29.6561 31.1748 29.6561 31.8911V45.8453H21.7765V21.3467H29.6561V24.7564C30.8022 23.1232 32.5931 20.7736 36.7621 20.7736C41.934 20.7736 45.8452 24.1834 45.8452 31.533V45.8453Z" fill="white"/>
</svg>
