<svg width="55" height="55" viewBox="0 0 55 55" fill="none" xmlns="http://www.w3.org/2000/svg">
<path d="M46.096 55H8.90539C3.99482 55 0 51.0042 0 46.0921V8.90791C0 3.99575 3.99482 0 8.90539 0H46.096C51.0051 0 55 3.99575 55 8.90791V46.0935C55 51.0057 51.0051 55 46.096 55ZM19.4928 39.2286L11.9932 41.1761L14.802 33.8197L14.5261 33.2166C11.7946 27.2432 13.2799 20.1008 18.3036 15.7234C24.5154 10.3109 33.9286 10.9707 39.3284 17.1971C44.7282 23.4235 44.0699 32.8587 37.8581 38.2713C32.8344 42.6486 25.5714 43.1289 20.0501 39.5863L19.4928 39.2286ZM15.8595 12.9049C9.75312 18.2256 7.82951 26.8125 10.8685 34.1507L7.02997 45.5008L18.6183 43.087C25.4451 47.1248 34.1963 46.4104 40.3027 41.0898C48.0674 34.3241 48.8901 22.53 42.1403 14.747C35.3905 6.964 23.6242 6.13927 15.8595 12.9049ZM35.8372 31.1652C35.8222 31.1562 35.623 31.0382 35.554 30.9965C34.8025 30.5263 33.1105 29.519 32.7771 29.3671C32.0901 29.0395 31.5744 29.0548 31.0836 29.6742C30.8591 29.9575 30.2367 30.5921 29.6837 31.1279C29.6354 31.1749 29.6987 31.1727 29.5406 31.0737C26.7883 29.3788 25.7204 28.3432 24.5815 25.9255C24.7902 25.7446 25.4582 25.0943 25.8175 24.5574C25.8639 24.4881 25.9096 24.4167 25.9547 24.343C26.2102 23.9159 26.2016 23.4975 26.0292 23.0602C25.7496 22.3511 23.4208 18.6528 22.8402 18.6019C22.3059 18.555 21.7112 18.7345 21.2209 19.1795C21.2517 19.151 20.9864 19.3914 20.892 19.4819C20.728 19.6391 20.5781 19.7979 20.4331 19.974C19.7927 20.7515 19.3765 21.7076 19.2706 22.9201C19.1768 23.9949 19.429 25.1272 19.9118 26.2664C20.1643 26.862 20.3635 27.2281 20.6681 27.7339C20.4993 27.4645 21.1167 28.5072 21.4625 29.0327C22.0452 29.9183 22.7078 30.7939 23.4592 31.6267C24.6623 32.9601 25.9839 34.061 27.4263 34.8426C29.8524 36.155 31.0285 36.4865 32.6339 36.3908C33.8344 36.3171 35.6372 35.3684 36.1231 34.2989C36.5642 33.3281 36.7486 32.2653 36.5251 31.8127C36.4549 31.6389 36.3112 31.4851 36.1078 31.3391C36.0326 31.2851 35.9518 31.2339 35.8372 31.1652Z" fill="#FEF6F6"/>
</svg>
